HIERARCHY
ROOT hip
{
  OFFSET 0 0 0
  CHANNELS 6 Xposition Yposition Zposition Zrotation Yrotation Xrotation
  JOINT abdomen
  {
    OFFSET 0 20.6881 -0.73152
    CHANNELS 3 Zrotation Xrotation Yrotation
    JOINT chest
    {
      OFFSET 0 11.7043 -0.48768
      CHANNELS 3 Zrotation Xrotation Yrotation
      JOINT neck
      {
        OFFSET 0 22.1894 -2.19456
        CHANNELS 3 Zrotation Xrotation Yrotation
        JOINT head
        {
          OFFSET -0.24384 7.07133 1.2192
          CHANNELS 3 Zrotation Xrotation Yrotation
          JOINT leftEye
          {
            OFFSET 4.14528 8.04674 8.04672
            CHANNELS 3 Zrotation Xrotation Yrotation
            End Site
            {
              OFFSET 1 0 0
            }
          }
          JOINT rightEye
          {
            OFFSET -3.6576 8.04674 8.04672
            CHANNELS 3 Zrotation Xrotation Yrotation
            End Site
            {
              OFFSET 1 0 0
            }
          }
        }
      }
      JOINT rCollar
      {
        OFFSET -2.68224 19.2634 -4.8768
        CHANNELS 3 Zrotation Xrotation Yrotation
        JOINT rShldr
        {
          OFFSET -8.77824 -1.95073 1.46304
          CHANNELS 3 Zrotation Xrotation Yrotation
          JOINT rForeArm
          {
            OFFSET -28.1742 -1.7115 0.48768
            CHANNELS 3 Zrotation Xrotation Yrotation
            JOINT rHand
            {
              OFFSET -22.5879 0.773209 7.07136
              CHANNELS 3 Zrotation Xrotation Yrotation
              JOINT rThumb1
              {
                OFFSET -1.2192 -0.487915 3.41376
                CHANNELS 3 Zrotation Xrotation Yrotation
                JOINT rThumb2
                {
                  OFFSET -3.37035 -0.52449 3.41376
                  CHANNELS 3 Zrotation Xrotation Yrotation
                  End Site
                  {
                    OFFSET -1.78271 -1.18214 1.43049
                  }
                }
              }
              JOINT rIndex1
              {
                OFFSET -7.75947 0.938293 5.60832
                CHANNELS 3 Zrotation Xrotation Yrotation
                JOINT rIndex2
                {
                  OFFSET -2.54057 -0.884171 1.56538
                  CHANNELS 3 Zrotation Xrotation Yrotation
                  End Site
                  {
                    OFFSET -1.62519 -0.234802 1.16502
                  }
                }
              }
              JOINT rMid1
              {
                OFFSET -8.24714 1.18213 3.41376
                CHANNELS 3 Zrotation Xrotation Yrotation
                JOINT rMid2
                {
                  OFFSET -3.10165 -0.590103 1.0647
                  CHANNELS 3 Zrotation Xrotation Yrotation
                  End Site
                  {
                    OFFSET -2.48547 -0.328903 0.83742
                  }
                }
              }
              JOINT rRing1
              {
                OFFSET -8.82822 0.546677 1.51678
                CHANNELS 3 Zrotation Xrotation Yrotation
                JOINT rRing2
                {
                  OFFSET -2.60934 -0.819778 -0.0198488
                  CHANNELS 3 Zrotation Xrotation Yrotation
                  End Site
                  {
                    OFFSET -2.33842 -0.294052 0.168128
                  }
                }
              }
              JOINT rPinky1
              {
                OFFSET -8.27202 -0.0477905 -0.4584
                CHANNELS 3 Zrotation Xrotation Yrotation
                JOINT rPinky2
                {
                  OFFSET -1.82734 -0.647385 -0.700984
                  CHANNELS 3 Zrotation Xrotation Yrotation
                  End Site
                  {
                    OFFSET -1.69225 -0.51767 -0.607171
                  }
                }
              }
            }
          }
        }
      }
      JOINT lCollar
      {
        OFFSET 2.68224 19.2634 -4.8768
        CHANNELS 3 Zrotation Xrotation Yrotation
        JOINT lShldr
        {
          OFFSET 8.77824 -1.95073 1.46304
          CHANNELS 3 Zrotation Xrotation Yrotation
          JOINT lForeArm
          {
            OFFSET 28.1742 -1.7115 0.48768
            CHANNELS 3 Zrotation Xrotation Yrotation
            JOINT lHand
            {
              OFFSET 22.5879 0.773209 7.07136
              CHANNELS 3 Zrotation Xrotation Yrotation
              JOINT lThumb1
              {
                OFFSET 1.2192 -0.487915 3.41376
                CHANNELS 3 Zrotation Xrotation Yrotation
                JOINT lThumb2
                {
                  OFFSET 3.37035 -0.52449 3.41376
                  CHANNELS 3 Zrotation Xrotation Yrotation
                  End Site
                  {
                    OFFSET 1.78271 -1.18214 1.43049
                  }
                }
              }
              JOINT lIndex1
              {
                OFFSET 7.75947 0.938293 5.60832
                CHANNELS 3 Zrotation Xrotation Yrotation
                JOINT lIndex2
                {
                  OFFSET 2.54057 -0.884171 1.56538
                  CHANNELS 3 Zrotation Xrotation Yrotation
                  End Site
                  {
                    OFFSET 1.62519 -0.234802 1.16502
                  }
                }
              }
              JOINT lMid1
              {
                OFFSET 8.24714 1.18213 3.41376
                CHANNELS 3 Zrotation Xrotation Yrotation
                JOINT lMid2
                {
                  OFFSET 3.10165 -0.590103 1.0647
                  CHANNELS 3 Zrotation Xrotation Yrotation
                  End Site
                  {
                    OFFSET 2.48547 -0.328903 0.83742
                  }
                }
              }
              JOINT lRing1
              {
                OFFSET 8.82822 0.546677 1.51678
                CHANNELS 3 Zrotation Xrotation Yrotation
                JOINT lRing2
                {
                  OFFSET 2.60934 -0.819778 -0.0198488
                  CHANNELS 3 Zrotation Xrotation Yrotation
                  End Site
                  {
                    OFFSET 2.33842 -0.294052 0.168128
                  }
                }
              }
              JOINT lPinky1
              {
                OFFSET 8.27202 -0.0477905 -0.4584
                CHANNELS 3 Zrotation Xrotation Yrotation
                JOINT lPinky2
                {
                  OFFSET 1.82734 -0.647385 -0.700984
                  CHANNELS 3 Zrotation Xrotation Yrotation
                  End Site
                  {
                    OFFSET 1.69225 -0.51767 -0.607171
                  }
                }
              }
            }
          }
        }
      }
    }
  }
  JOINT rButtock
  {
    OFFSET -8.77824 4.35084 1.2192
    CHANNELS 3 Zrotation Xrotation Yrotation
    JOINT rThigh
    {
      OFFSET 0 -1.70687 -2.19456
      CHANNELS 3 Zrotation Xrotation Yrotation
      JOINT rShin
      {
        OFFSET 0 -36.8199 0.73152
        CHANNELS 3 Zrotation Xrotation Yrotation
        JOINT rFoot
        {
          OFFSET 0.73152 -45.1104 -5.12064
          CHANNELS 3 Zrotation Xrotation Yrotation
          End Site
          {
            OFFSET -1.1221 -3.69964 12.103
          }
        }
      }
    }
  }
  JOINT lButtock
  {
    OFFSET 8.77824 4.35084 1.2192
    CHANNELS 3 Zrotation Xrotation Yrotation
    JOINT lThigh
    {
      OFFSET 0 -1.70687 -2.19456
      CHANNELS 3 Zrotation Xrotation Yrotation
      JOINT lShin
      {
        OFFSET 0 -36.8199 0.73152
        CHANNELS 3 Zrotation Xrotation Yrotation
        JOINT lFoot
        {
          OFFSET -0.73152 -45.1104 -5.12064
          CHANNELS 3 Zrotation Xrotation Yrotation
          End Site
          {
            OFFSET 1.1221 -3.69964 12.103
          }
        }
      }
    }
  }
}
MOTION
Frames:	4
Frame Time:	0.00833333
19.0218 84.8802 -38.7401 -184.472 36.473 -172.715 -10.8691 14.5265 -4.35319 6.81752 2.46039 -1.38849 -13.5691 13.657 -8.02369 29.4044 -39.5467 -4.79701 -0.0 0.0 0.0 -0.0 0.0 0.0 -7.80215e-14 -4.92994e-13 -4.57851e-13 66.3929 6.45986 9.36517 -17.0666 -9.71728 31.9584 -0.00096757 0.888171 0.124834 3.08997e-09 -1.77699e-09 -1.8406e-09 5.34069e-09 -3.08468e-09 -3.19787e-09 3.08998e-09 -1.77698e-09 -1.84062e-09 7.73091 5.47488 0.417314 3.08998e-09 -1.77699e-09 -1.8406e-09 2.90554 0.965183 0.102902 3.08998e-09 -1.77699e-09 -1.84061e-09 10.2786 0.731801 0.0259123 3.08997e-09 -1.77699e-09 -1.84061e-09 2.22167 -0.733487 -0.20892 -7.78806e-14 -4.92976e-13 -4.58149e-13 -63.9374 23.5206 -14.1944 28.0024 -30.6264 -68.2494 0.87993 -25.6323 3.86658 2.26108e-09 2.83612e-09 8.56743e-10 3.8879e-09 5.00422e-09 1.5234e-09 2.26107e-09 2.83611e-09 8.56756e-10 -7.73091 5.47488 -0.417314 2.26108e-09 2.83612e-09 8.56743e-10 -2.90554 0.965183 -0.102902 2.26107e-09 2.83611e-09 8.56749e-10 -10.2786 0.731801 -0.0259123 2.26108e-09 2.83612e-09 8.5674e-10 -2.22167 -0.733487 0.20892 -2.03217e-16 0.0 -3.88251e-19 -21.7553 -51.101 -18.0017 -0.150315 27.3314 0.588219 0.13355 10.0139 -3.73805 2.03217e-16 0.0 3.88251e-19 -8.09617 17.1618 -6.33198 0.060146 30.492 -1.05677 0.854943 22.9568 -0.403268
21.8625 84.9327 -41.1673 -185.251 36.8544 -173.937 -11.9329 14.5071 -4.01276 7.06666 2.61255 -1.32728 -13.9046 13.6194 -7.94386 29.998 -39.1186 -4.50167 -0.0 0.0 0.0 -0.0 0.0 0.0 2.6844e-14 -5.50529e-13 -7.66047e-13 65.1937 6.7079 9.48847 -17.0198 -9.67061 31.8561 -0.00375152 1.42044 0.199659 3.79176e-09 -3.2633e-09 -3.06033e-09 6.5514e-09 -5.66118e-09 -5.31373e-09 3.79176e-09 -3.26329e-09 -3.06034e-09 7.73091 5.47488 0.417314 3.79176e-09 -3.2633e-09 -3.06033e-09 2.90554 0.965183 0.102902 3.79176e-09 -3.2633e-09 -3.06034e-09 10.2786 0.731801 0.0259123 3.79175e-09 -3.2633e-09 -3.06033e-09 2.22167 -0.733487 -0.20892 2.69616e-14 -5.50513e-13 -7.66308e-13 -63.7201 23.3385 -12.1242 28.2292 -31.9936 -70.2402 1.09422 -28.5114 4.36829 3.72421e-09 4.61228e-09 1.12346e-09 6.40125e-09 8.2109e-09 2.02838e-09 3.72421e-09 4.61227e-09 1.12347e-09 -7.73091 5.47488 -0.417314 3.72421e-09 4.61228e-09 1.12346e-09 -2.90554 0.965183 -0.102902 3.7242e-09 4.61227e-09 1.12346e-09 -10.2786 0.731801 -0.0259123 3.72422e-09 4.61228e-09 1.12345e-09 -2.22167 -0.733487 0.20892 -2.03217e-16 0.0 -3.88251e-19 -21.5628 -50.598 -19.213 -0.148658 26.7832 0.54631 0.24963 10.8911 -3.36637 2.03217e-16 0.0 3.88251e-19 -8.58179 17.5756 -5.74492 0.112451 33.4188 -1.0683 0.574581 22.962 0.603089
24.6174 84.7987 -43.5466 -185.945 37.2996 -175.083 -13.2283 14.7115 -3.58119 7.35252 2.74997 -1.24074 -14.3843 13.4564 -7.84789 30.9858 -38.5669 -4.01653 -0.0 0.0 0.0 -0.0 0.0 0.0 1.62742e-13 -6.24685e-13 -1.16495e-12 63.9693 7.21714 9.92675 -16.9536 -9.60459 31.712 -0.00498692 1.76777 0.248513 4.77526e-09 -5.2624e-09 -4.54736e-09 8.24779e-09 -9.12638e-09 -7.89317e-09 4.77526e-09 -5.2624e-09 -4.54737e-09 7.73091 5.47488 0.417314 4.77526e-09 -5.2624e-09 -4.54736e-09 2.90554 0.965183 0.102902 4.77526e-09 -5.2624e-09 -4.54737e-09 10.2786 0.731801 0.0259123 4.77525e-09 -5.2624e-09 -4.54736e-09 2.22167 -0.733487 -0.20892 1.62791e-13 -6.24676e-13 -1.16515e-12 -63.6143 23.1585 -9.81569 28.3788 -33.5057 -72.6639 1.40148 -31.8458 4.99294 5.66216e-09 7.64211e-09 1.68082e-09 9.72616e-09 1.36401e-08 3.05307e-09 5.66215e-09 7.64211e-09 1.68084e-09 -7.73091 5.47488 -0.417314 5.66216e-09 7.64211e-09 1.68082e-09 -2.90554 0.965183 -0.102902 5.66215e-09 7.64211e-09 1.68083e-09 -10.2786 0.731801 -0.0259123 5.66216e-09 7.64212e-09 1.68081e-09 -2.22167 -0.733487 0.20892 -2.03217e-16 0.0 -3.88251e-19 -21.3269 -50.1334 -20.3044 -0.153972 27.0805 0.508344 0.354433 11.7951 -3.01695 2.03217e-16 0.0 3.88251e-19 -9.18725 17.6642 -4.53744 0.178566 37.1336 -1.11243 0.300142 22.7399 1.72584
27.519 84.558 -45.9398 -186.926 37.5308 -176.63 -14.4137 14.9987 -3.14034 7.57603 2.8801 -1.14123 -14.805 13.3497 -7.75136 31.9386 -38.1693 -3.51383 -0.0 0.0 0.0 -0.0 0.0 0.0 2.76878e-13 -6.75136e-13 -1.48145e-12 62.8122 7.70765 10.5223 -16.8915 -9.54272 31.5776 -0.00518597 1.97823 0.278128 5.58149e-09 -6.95154e-09 -5.65247e-09 9.63842e-09 -1.20539e-08 -9.81034e-09 5.58149e-09 -6.95155e-09 -5.65248e-09 7.73091 5.47488 0.417314 5.58149e-09 -6.95154e-09 -5.65247e-09 2.90554 0.965183 0.102902 5.58149e-09 -6.95154e-09 -5.65247e-09 10.2786 0.731801 0.0259123 5.58148e-09 -6.95154e-09 -5.65247e-09 2.22167 -0.733487 -0.20892 2.76853e-13 -6.75134e-13 -1.48159e-12 -63.5938 22.9647 -7.40266 28.4331 -35.0401 -75.3102 1.78698 -35.2003 5.67951 7.27175e-09 1.06104e-08 2.26722e-09 1.24839e-08 1.89327e-08 4.11872e-09 7.27174e-09 1.06104e-08 2.26724e-09 -7.73091 5.47488 -0.417314 7.27174e-09 1.06104e-08 2.26722e-09 -2.90554 0.965183 -0.102902 7.27174e-09 1.06104e-08 2.26722e-09 -10.2786 0.731801 -0.0259123 7.27175e-09 1.06104e-08 2.26721e-09 -2.22167 -0.733487 0.20892 -2.03217e-16 0.0 -3.88251e-19 -20.8771 -49.588 -21.0887 -0.166864 27.8811 0.466367 0.395655 12.6004 -2.43588 2.03217e-16 0.0 3.88251e-19 -9.57824 17.4284 -3.03363 0.268282 41.3634 -1.18375 0.0580385 22.4072 2.90594
